# xmcd
#
# Track frame offsets: 
#        150
#        22878
#        46749
#        68386
#        91567
#        110136
#        131971
#        153577
#        169761
#        190747
#        208288
#        229101
#
# Disc length: 3331 seconds
#
# Revision: 0
# Processed by: cddbd v1.5.2PL0 Copyright (c) Steve Scherf et al.
# Submitted via: ExactAudioCopy v1.0b4
#
DISCID=990d010c
DTITLE=Sonny Mack and Till Palmer - Get on Up!
DYEAR=2016
DGENRE=Blues
TTITLE0=Cheatin' Is the Only Way to Go
TTITLE1=Get on Up!
TTITLE2=Clean up Man
TTITLE3=Goody Good Good Stuff
TTITLE4=Sit Her on the Table
TTITLE5=I Got to Get Myself Together
TTITLE6=Another Man's Been on It
TTITLE7=Dig a Little Deeper
TTITLE8=It Ain't What's in Your Pocket
TTITLE9=Body Drain
TTITLE10=Somebody's Been Fishin' in My Private Fishin' Hole
TTITLE11=Cheatin' Ain't No Fun
EXTD=
EXTT0=
EXTT1=
EXTT2=
EXTT3=
EXTT4=
EXTT5=
EXTT6=
EXTT7=
EXTT8=
EXTT9=
EXTT10=
EXTT11=
PLAYORDER=
